<svg width="26" height="18" viewBox="0 0 26 18" fill="none" xmlns="http://www.w3.org/2000/svg">
<path d="M3 0.25H23C23.663 0.25 24.2989 0.513392 24.7678 0.982233C25.2366 1.45107 25.5 2.08696 25.5 2.75V15.25C25.5 15.913 25.2366 16.5489 24.7678 17.0178C24.2989 17.4866 23.663 17.75 23 17.75H3C2.33696 17.75 1.70107 17.4866 1.23223 17.0178C0.763392 16.5489 0.5 15.913 0.5 15.25V2.75C0.5 2.08696 0.763392 1.45107 1.23223 0.982233C1.70107 0.513392 2.33696 0.25 3 0.25ZM20.5 2.75H5.5C5.5 3.41304 5.23661 4.04893 4.76777 4.51777C4.29893 4.98661 3.66304 5.25 3 5.25V12.75C3.66304 12.75 4.29893 13.0134 4.76777 13.4822C5.23661 13.9511 5.5 14.587 5.5 15.25H20.5C20.5 14.587 20.7634 13.9511 21.2322 13.4822C21.7011 13.0134 22.337 12.75 23 12.75V5.25C22.337 5.25 21.7011 4.98661 21.2322 4.51777C20.7634 4.04893 20.5 3.41304 20.5 2.75ZM8 5.25H10.5V12.75H8V5.25ZM15.5 10.25C15.8315 10.25 16.1495 10.1183 16.3839 9.88388C16.6183 9.64946 16.75 9.33152 16.75 9C16.75 8.66848 16.6183 8.35054 16.3839 8.11612C16.1495 7.8817 15.8315 7.75 15.5 7.75C15.1685 7.75 14.8505 7.8817 14.6161 8.11612C14.3817 8.35054 14.25 8.66848 14.25 9C14.25 9.33152 14.3817 9.64946 14.6161 9.88388C14.8505 10.1183 15.1685 10.25 15.5 10.25ZM15.5 12.75C14.5054 12.75 13.5516 12.3549 12.8483 11.6517C12.1451 10.9484 11.75 9.99456 11.75 9C11.75 8.00544 12.1451 7.05161 12.8483 6.34835C13.5516 5.64509 14.5054 5.25 15.5 5.25C16.4946 5.25 17.4484 5.64509 18.1517 6.34835C18.8549 7.05161 19.25 8.00544 19.25 9C19.25 9.99456 18.8549 10.9484 18.1517 11.6517C17.4484 12.3549 16.4946 12.75 15.5 12.75Z" fill="white"/>
</svg>
