<svg width="30" height="30" viewBox="0 0 30 30" fill="none" xmlns="http://www.w3.org/2000/svg">
<path d="M20.8814 12.3937C20.6386 10.4538 20.9169 8.48419 21.6877 6.68747C21.8002 6.46247 22.0127 6.19997 21.8002 5.95622C21.5877 5.71247 21.2939 5.88122 21.0439 5.95622C20.3994 6.14372 19.8007 6.46264 19.2854 6.8929C18.7702 7.32316 18.3496 7.85544 18.0502 8.45622C17.8814 8.74997 17.7627 9.04372 17.3064 8.98122C15.7665 8.78029 14.2091 8.75094 12.6627 8.89372C11.503 8.96362 10.3706 9.27439 9.3377 9.80622C7.745 10.6829 6.49597 12.0729 5.79395 13.75C5.75987 13.6675 5.73473 13.5816 5.71895 13.4937C5.54395 12.6812 5.09395 12.2437 4.3877 12.35H4.3752C4.21404 12.3703 4.05872 12.4232 3.91874 12.5056C3.77877 12.588 3.65708 12.6981 3.56112 12.8292C3.46517 12.9602 3.39697 13.1095 3.36071 13.2678C3.32444 13.4261 3.32086 13.5902 3.3502 13.75C3.31247 14.4416 3.44286 15.132 3.73022 15.7622C4.01757 16.3925 4.45332 16.9437 5.0002 17.3687C5.19931 17.5051 5.3416 17.7096 5.4002 17.9437C5.76755 19.4902 6.61673 20.8799 7.8252 21.9125C8.04366 22.0913 8.21488 22.321 8.32386 22.5815C8.43283 22.8419 8.47621 23.1251 8.4502 23.4062C8.28145 25.1062 8.95645 25.9687 10.8064 26.2187C10.9486 26.2523 11.0926 26.2773 11.2377 26.2937C12.4877 26.55 12.3502 26.5437 12.5814 25.4062C12.7377 24.6437 13.0439 24.4187 13.8314 24.5375C14.4691 24.6249 15.1133 24.6563 15.7564 24.6312C17.3002 24.6312 17.3064 24.6312 17.7252 26.075C17.8002 26.3375 17.8564 26.625 18.2252 26.5562C19.0808 26.4752 19.9216 26.2798 20.7252 25.975C21.0302 25.8717 21.2967 25.6785 21.4897 25.4208C21.6827 25.1631 21.7932 24.8529 21.8064 24.5312C21.6752 23.2 22.1064 22.6562 22.9064 21.6625C23.0189 21.5312 23.2564 21.3 23.3877 21.1125C23.6241 20.737 23.9474 20.4239 24.3303 20.1998C24.7133 19.9757 25.1446 19.8471 25.5877 19.825C26.3439 19.7875 26.6814 19.5562 26.6814 18.6875V16.0625C26.7096 15.791 26.6296 15.5193 26.4588 15.3064C26.2879 15.0934 26.0401 14.9564 25.7689 14.925C25.3413 14.8397 24.9412 14.6502 24.6044 14.3733C24.2675 14.0963 24.0041 13.7406 23.8377 13.3375C23.1734 12.0351 22.1496 10.9506 20.8877 10.2125L20.8814 12.3937ZM21.9064 17C21.6107 16.9823 21.334 16.8479 21.1372 16.6265C20.9403 16.405 20.8394 16.1145 20.8564 15.8187C20.8726 15.528 21.0034 15.2555 21.2201 15.061C21.4369 14.8665 21.7219 14.7659 22.0127 14.7812V14.7812C22.1643 14.7822 22.3141 14.8139 22.453 14.8746C22.592 14.9352 22.7171 15.0234 22.8209 15.1339C22.9247 15.2444 23.005 15.3748 23.0568 15.5172C23.1087 15.6597 23.1311 15.8112 23.1226 15.9625C23.1141 16.1139 23.0749 16.2619 23.0075 16.3977C22.9401 16.5334 22.8457 16.6541 22.7303 16.7523C22.6148 16.8505 22.4805 16.9242 22.3357 16.9689C22.1909 17.0136 22.0384 17.0284 21.8877 17.0125L21.9064 17Z" stroke="white" stroke-linecap="round" stroke-linejoin="round"/>
<path d="M10.5875 9.26255C10.0834 8.93669 9.69119 8.4642 9.46371 7.90869C9.23624 7.35318 9.18441 6.74131 9.31521 6.15546C9.44602 5.5696 9.75316 5.03788 10.1953 4.63187C10.6375 4.22586 11.1934 3.96506 11.7882 3.88456C12.3831 3.80407 12.9883 3.90775 13.5225 4.18166C14.0566 4.45556 14.494 4.88653 14.7758 5.41656C15.0576 5.94659 15.1703 6.55022 15.0986 7.14621C15.027 7.7422 14.7744 8.30193 14.375 8.75005" stroke="white" stroke-linecap="round" stroke-linejoin="round"/>
</svg>
