<svg width="30" height="30" viewBox="0 0 30 30" fill="none" xmlns="http://www.w3.org/2000/svg">
<path d="M17.945 3.24374C17.9714 3.21057 18.0042 3.18311 18.0415 3.16302C18.0788 3.14294 18.1198 3.13065 18.162 3.12691C18.2043 3.12317 18.2468 3.12805 18.287 3.14126C18.3273 3.15446 18.3645 3.17572 18.3962 3.20374L19.5475 4.21874L15.9237 8.74999H18.325L20.9575 5.45999L23.0225 7.28124C23.0836 7.3352 23.1211 7.41087 23.1272 7.49213C23.1333 7.57339 23.1074 7.65381 23.055 7.71624L22.1925 8.74999H24.6225C24.9235 8.30934 25.053 7.77385 24.9867 7.24434C24.9204 6.71483 24.6629 6.22782 24.2625 5.87499L19.6375 1.79624C19.4144 1.59974 19.1536 1.45079 18.8709 1.35848C18.5883 1.26617 18.2899 1.23244 17.9938 1.25934C17.6977 1.28625 17.4102 1.37323 17.1488 1.51497C16.8875 1.65671 16.6578 1.85024 16.4738 2.08374L11.22 8.74999H13.6075L17.945 3.24374ZM6.5625 8.12499C6.31386 8.12499 6.0754 8.22376 5.89959 8.39958C5.72377 8.57539 5.625 8.81385 5.625 9.06249C5.625 9.31113 5.72377 9.54959 5.89959 9.7254C6.0754 9.90122 6.31386 9.99999 6.5625 9.99999H22.8125C23.8899 9.99999 24.9233 10.428 25.6851 11.1899C26.447 11.9517 26.875 12.985 26.875 14.0625V22.1875C26.875 23.2649 26.447 24.2982 25.6851 25.0601C24.9233 25.822 23.8899 26.25 22.8125 26.25H7.8125C6.73506 26.25 5.70175 25.822 4.93988 25.0601C4.17801 24.2982 3.75 23.2649 3.75 22.1875V9.06249C3.75 8.31657 4.04632 7.6012 4.57376 7.07375C5.10121 6.54631 5.81658 6.24999 6.5625 6.24999H11.9625L10.4725 8.12499H6.5625ZM19.375 18.4375C19.375 18.955 19.795 19.375 20.3125 19.375H22.8125C23.0611 19.375 23.2996 19.2762 23.4754 19.1004C23.6512 18.9246 23.75 18.6861 23.75 18.4375C23.75 18.1888 23.6512 17.9504 23.4754 17.7746C23.2996 17.5988 23.0611 17.5 22.8125 17.5H20.3125C20.0639 17.5 19.8254 17.5988 19.6496 17.7746C19.4738 17.9504 19.375 18.1888 19.375 18.4375Z" fill="white"/>
</svg>
